#!OML:ASF X:\für Bonn\!DataBase\2005_08_12_Daniel\c3d\Daniel.ASF
:FULLY-SPECIFIED
:DEGREES
354
root 21.6409 1.36622 0.0570002 -1285.44 260.839 95.0842
lowerback 24.1569 -2.60177 -4.82689
upperback 5.21456 -5.20834 -1.68501
thorax -7.3973 -2.65396 2.47685
lowerneck -11.4528 1.72004 -8.19732
upperneck 6.8011 3.33456 2.05328
head 3.72161 1.5185 2.15483
rclavicle -9.74045e-014 8.5291e-014
rhumerus -406.202 -13.2483 286.697
rradius 17.2233
rwrist 43.3013
rhand -25.0921 736.861
rfingers 7.12502
rthumb 1.42263 706.886
lclavicle -9.74045e-014 8.5291e-014
lhumerus -399.16 8.61466 -275.079
lradius 38.2486
lwrist -16.707
lhand -22.5843 -724.815
lfingers 7.12502
lthumb 3.84456 25.1306
rfemur 10.4263 -3.01512 9.83851
rtibia 33.8979
rfoot 382.219 -20.9431
rtoes 20.9365
lfemur 8.53194 -24.0414 -31.0343
ltibia 32.7865
lfoot 24.9679 6.29514
ltoes -2.32372
355
root 21.6188 1.36778 0.0582847 -1285.93 260.736 95.8957
lowerback 23.8069 -2.60945 -4.93907
upperback 5.12496 -5.21878 -1.72089
thorax -7.30892 -2.65335 2.48313
lowerneck -11.6178 1.68164 -8.22976
upperneck 6.87444 3.30089 2.08878
head 3.77138 1.5015 2.1723
rclavicle 5.76476e-014 -5.71195e-014
rhumerus -406.663 -14.3634 287.781
rradius 16.375
rwrist 45.1863
rhand -25.0425 737.151
rfingers 7.12502
rthumb 1.4705 707.176
lclavicle 5.76476e-014 -5.71195e-014
lhumerus -399.316 9.29972 -275.533
lradius 37.1455
lwrist -17.7154
lhand -22.4674 -724.692
lfingers 7.12502
lthumb 3.95744 25.2509
rfemur 11.1277 -1.93053 10.2227
rtibia 32.1897
rfoot 380.174 -23.0193
rtoes 21.6961
lfemur 8.5342 -24.5128 -31.3604
ltibia 32.322
lfoot 23.788 6.01539
ltoes -2.23855
356
root 21.6031 1.36928 0.0594196 -1286.34 260.642 96.6241
lowerback 23.4486 -2.61984 -5.03207
upperback 5.04339 -5.22745 -1.76336
thorax -7.20914 -2.65315 2.47001
lowerneck -11.8141 1.65201 -8.23085
upperneck 6.97739 3.27663 2.13527
head 3.8351 1.49015 2.18957
rclavicle -4.37326e-015 -1.83317e-014
rhumerus -407.156 -15.7193 289.093
rradius 15.4967
rwrist 47.4714
rhand -25.0236 737.461
rfingers 7.12502
rthumb 1.48879 707.486
lclavicle -4.37326e-015 -1.83317e-014
lhumerus -399.468 10.0359 -276.045
lradius 36.0657
lwrist -18.7233
lhand -22.3667 -724.637
lfingers 7.12502
lthumb 4.05471 25.3038
rfemur 11.7699 -0.684316 10.7003
rtibia 30.6525
rfoot 377.898 -25.1236
rtoes 22.5119
lfemur 8.54266 -24.9122 -31.6169
ltibia 31.836
lfoot 22.4954 5.72986
ltoes -1.42771
357
root 21.5997 1.37111 0.0616723 -1286.6 260.549 97.2029
lowerback 23.1163 -2.63248 -5.08859
upperback 4.94846 -5.23185 -1.81073
thorax -7.14096 -2.64982 2.43234
lowerneck -11.9424 1.62377 -8.16721
upperneck 7.03482 3.2429 2.1193
head 3.87655 1.47335 2.17511
rclavicle 3.69739e-014 -5.30507e-015
rhumerus -407.731 -17.2481 290.593
rradius 14.633
rwrist 49.9691
rhand -24.8922 737.674
rfingers 7.12502
rthumb 1.61567 707.701
lclavicle 3.69739e-014 -5.30507e-015
lhumerus -399.629 10.7527 -276.6
lradius 34.9905
lwrist -19.7628
lhand -22.1961 -724.595
lfingers 7.12502
lthumb 4.21939 25.3431
rfemur 12.3776 0.662833 11.2384
rtibia 29.2781
rfoot 375.204 -27.2258
rtoes 23.0969
lfemur 8.55471 -25.2178 -31.8003
ltibia 31.3378
lfoot 21.3004 5.3069
ltoes -1.51616
358
root 21.6012 1.37331 0.0636385 -1286.74 260.475 97.6558
lowerback 22.7624 -2.65145 -5.15922
upperback 4.88511 -5.24487 -1.83278
thorax -7.02172 -2.6541 2.42946
lowerneck -12.1713 1.60454 -8.13837
upperneck 7.13232 3.2332 2.12888
head 3.94429 1.46791 2.17745
rclavicle 7.4743e-014 -3.17496e-014
rhumerus -408.295 -18.9583 292.324
rradius 13.7597
rwrist 52.8141
rhand -24.7358 737.781
rfingers 7.12502
rthumb 1.76675 707.808
lclavicle 7.4743e-014 -3.17496e-014
lhumerus -399.754 11.5896 -277.197
lradius 33.9281
lwrist -20.8927
lhand -22.1032 -724.669
lfingers 7.12502
lthumb 4.30915 25.2674
rfemur 12.9203 2.15932 11.876
rtibia 28.0673
rfoot 372.04 -29.1558
rtoes 23.5325
lfemur 8.57846 -25.506 -31.9435
ltibia 30.8427
lfoot 20.2468 5.0578
ltoes -1.89753
359
root 21.5997 1.37506 0.0649214 -1287.07 260.42 98.2942
lowerback 22.4332 -2.65117 -5.261
upperback 4.80381 -5.24089 -1.85361
thorax -6.9327 -2.64765 2.44317
lowerneck -12.3181 1.59565 -8.08913
upperneck 7.17275 3.22915 2.10072
head 3.98195 1.46474 2.16329
rclavicle 8.3092e-014 -5.49577e-014
rhumerus -409.005 -20.8468 294.365
rradius 12.9432
rwrist 56.0701
rhand -24.5004 737.845
rfingers 7.12502
rthumb 1.9941 707.874
lclavicle 8.3092e-014 -5.49577e-014
lhumerus -399.904 12.4759 -277.83
lradius 32.8408
lwrist -22.1366
lhand -22.0049 -724.746
lfingers 7.12502
lthumb 4.40406 25.1885
rfemur 13.3964 3.85376 12.5648
rtibia 27.0198
rfoot 368.196 -30.8856
rtoes 23.9583
lfemur 8.54987 -25.6304 -32.0444
ltibia 30.3933
lfoot 19.4284 4.88679
ltoes -1.91617
360
root 21.5962 1.37586 0.0666581 -1287.05 260.351 98.5829
lowerback 22.1075 -2.68132 -5.30421
upperback 4.71832 -5.26275 -1.86407
thorax -6.85196 -2.65445 2.44248
lowerneck -12.4556 1.59667 -8.03936
upperneck 7.21537 3.2374 2.07118
head 4.01818 1.46745 2.14928
rclavicle -9.46215e-014 1.33186e-013
rhumerus -409.818 -22.8249 296.602
rradius 12.1894
rwrist 59.5583
rhand -24.2148 737.752
rfingers 7.12502
rthumb 2.26988 707.785
lclavicle -9.46215e-014 1.33186e-013
lhumerus -400.076 13.3507 -278.478
lradius 31.7894
lwrist -23.34
lhand -21.9942 -724.821
lfingers 7.12502
lthumb 4.41433 25.1128
rfemur 13.804 5.68175 13.3867
rtibia 26.1482
rfoot 363.858 -32.2375
rtoes 25.5565
lfemur 8.45194 -25.6855 -32.0199
ltibia 30.0075
lfoot 18.8482 4.94997
ltoes -1.72277
361
root 21.5889 1.37606 0.0679352 -1287.27 260.292 99.086
lowerback 21.8151 -2.69098 -5.38307
upperback 4.63932 -5.26919 -1.88692
thorax -6.78005 -2.65337 2.44626
lowerneck -12.622 1.59847 -7.97588
upperneck 7.28664 3.24673 2.04852
head 4.06793 1.47091 2.1361
rclavicle 1.59028e-015 -1.05791e-014
rhumerus -410.758 -24.8699 299.004
rradius 11.5368
rwrist 63.271
rhand -23.8305 737.5
rfingers 7.12502
rthumb 2.6411 707.537
lclavicle 1.59028e-015 -1.05791e-014
lhumerus -400.276 14.2552 -279.182
lradius 30.7635
lwrist -24.6437
lhand -21.9347 -724.949
lfingers 7.12502
lthumb 4.47184 24.9841
rfemur 14.1805 7.58831 14.2103
rtibia 25.4521
rfoot 359.203 -33.0871
rtoes 27.7612
lfemur 8.31899 -25.6611 -31.9934
ltibia 29.7102
lfoot 18.4147 5.12413
ltoes -1.85418
362
root 21.5821 1.37558 0.0695085 -1287.14 260.254 99.2615
lowerback 21.4948 -2.714 -5.39988
upperback 4.55368 -5.27539 -1.89377
thorax -6.70438 -2.65289 2.43081
lowerneck -12.733 1.60517 -7.88725
upperneck 7.31035 3.25477 2.00397
head 4.09493 1.47419 2.11066
rclavicle -6.48038e-014 7.33018e-015
rhumerus -411.765 -26.8121 301.422
rradius 10.9937
rwrist 66.9495
rhand -23.3247 737.153
rfingers 7.12502
rthumb 3.12952 707.196
lclavicle -6.48038e-014 7.33018e-015
lhumerus -400.496 15.1224 -279.904
lradius 29.7664
lwrist -25.9795
lhand -21.9182 -725.006
lfingers 7.12502
lthumb 4.48777 24.9267
rfemur 14.4614 9.52733 15.1259
rtibia 24.9177
rfoot 354.537 -33.4302
rtoes 29.6602
lfemur 8.09309 -25.622 -31.8494
ltibia 29.501
lfoot 18.1531 5.48385
ltoes -2.63812
363
root 21.5718 1.37428 0.0703988 -1287 260.216 99.383
lowerback 21.2088 -2.72956 -5.41392
upperback 4.48927 -5.27367 -1.89332
thorax -6.62308 -2.65005 2.42114
lowerneck -12.8608 1.60626 -7.78108
upperneck 7.32755 3.25691 1.921
head 4.12395 1.47271 2.07028
rclavicle 6.16232e-014 -1.34832e-013
rhumerus -412.805 -28.665 303.824
rradius 10.5376
rwrist 70.5512
rhand -22.7451 736.68
rfingers 7.12502
rthumb 3.68927 706.732
lclavicle 6.16232e-014 -1.34832e-013
lhumerus -400.71 15.96 -280.612
lradius 28.7658
lwrist -27.31
lhand -21.9226 -725.062
lfingers 7.12502
lthumb 4.48348 24.8705
rfemur 14.7514 11.5054 16.0927
rtibia 24.5393
rfoot 349.592 -33.0841
rtoes 31.6817
lfemur 7.86042 -25.565 -31.6852
ltibia 29.3736
lfoot 18.0735 6.02149
ltoes -3.72307
